<svg xmlns="http://www.w3.org/2000/svg" width="24" height="24" fill="none"><path d="M 8 16 L 8 17.2 C 8 18.88 8 19.72 8.327 20.362 C 8.615 20.926 9.074 21.385 9.638 21.673 C 10.28 22 11.12 22 12.8 22 L 17.2 22 C 18.88 22 19.72 22 20.362 21.673 C 20.926 21.385 21.385 20.926 21.673 20.362 C 22 19.72 22 18.88 22 17.2 L 22 12.8 C 22 11.12 22 10.28 21.673 9.638 C 21.385 9.074 20.926 8.615 20.362 8.327 C 19.72 8 18.88 8 17.2 8 L 16 8 M 6.8 16 L 11.2 16 C 12.88 16 13.72 16 14.362 15.673 C 14.926 15.385 15.385 14.926 15.673 14.362 C 16 13.72 16 12.88 16 11.2 L 16 6.8 C 16 5.12 16 4.28 15.673 3.638 C 15.385 3.074 14.926 2.615 14.362 2.327 C 13.72 2 12.88 2 11.2 2 L 6.8 2 C 5.12 2 4.28 2 3.638 2.327 C 3.074 2.615 2.615 3.074 2.327 3.638 C 2 4.28 2 5.12 2 6.8 L 2 11.2 C 2 12.88 2 13.72 2.327 14.362 C 2.615 14.926 3.074 15.385 3.638 15.673 C 4.28 16 5.12 16 6.8 16 Z" fill="transparent" stroke-width="2" stroke="rgb(255, 255, 255)" stroke-linecap="round" stroke-linejoin="round" stroke-dasharray=""></path></svg>